<?xml version="1.0" standalone="no"?>
<!DOCTYPE svg PUBLIC "-//W3C//DTD SVG 20010904//EN"
 "http://www.w3.org/TR/2001/REC-SVG-20010904/DTD/svg10.dtd">
<svg version="1.0" xmlns="http://www.w3.org/2000/svg"
 width="1150.000000pt" height="270.000000pt" viewBox="0 0 1150.000000 270.000000"
 preserveAspectRatio="xMidYMid meet">
<metadata>
Created by potrace 1.15, written by Peter Selinger 2001-2017
</metadata>
<g transform="translate(0.000000,270.000000) scale(0.100000,-0.100000)"
fill="#000000" stroke="none">
<path d="M0 2430 l0 -270 275 0 275 0 0 270 0 270 -275 0 -275 0 0 -270z"/>
<path d="M1530 2430 l0 -270 275 0 275 0 0 270 0 270 -275 0 -275 0 0 -270z"/>
<path d="M7940 1867 l0 -293 -53 52 c-91 87 -237 127 -389 106 -205 -29 -362
-174 -419 -388 -29 -104 -31 -324 -6 -428 27 -108 71 -190 140 -260 77 -78
132 -111 232 -136 177 -45 338 -7 444 105 l51 54 0 -75 0 -74 145 0 145 0 0
815 0 815 -145 0 -145 0 0 -293z m-190 -414 c60 -22 133 -92 161 -156 31 -71
38 -220 14 -303 -82 -281 -442 -298 -546 -25 -27 73 -30 211 -6 293 32 107
122 191 223 207 57 9 92 5 154 -16z"/>
<path d="M9320 1870 l0 -291 -31 36 c-44 50 -157 102 -251 117 -265 40 -502
-120 -574 -387 -24 -91 -30 -292 -10 -394 46 -243 210 -410 434 -443 174 -26
353 41 424 157 l18 30 0 -82 0 -83 145 0 145 0 0 815 0 815 -150 0 -150 0 0
-290z m-175 -420 c127 -54 194 -185 182 -355 -7 -105 -29 -164 -83 -224 -78
-87 -181 -118 -289 -86 -78 22 -163 105 -191 185 -26 75 -26 234 -1 307 55
158 232 238 382 173z"/>
<path d="M9890 1345 l0 -815 145 0 145 0 0 815 0 815 -145 0 -145 0 0 -815z"/>
<path d="M4150 1335 l0 -805 155 0 155 0 0 335 0 335 365 0 365 0 0 -335 0
-335 155 0 155 0 0 805 0 805 -155 0 -155 0 0 -330 0 -330 -365 0 -365 0 0
330 0 330 -155 0 -155 0 0 -805z"/>
<path d="M5782 1293 c4 -406 5 -431 26 -493 35 -106 107 -191 202 -240 59 -30
141 -43 242 -38 82 3 104 8 161 36 41 20 81 50 106 79 l41 46 0 -77 0 -76 145
0 145 0 0 595 0 595 -149 0 -150 0 -3 -352 c-3 -337 -4 -355 -25 -408 -47
-115 -134 -180 -243 -180 -78 0 -137 31 -170 90 l-25 45 -3 403 -3 402 -150 0
-151 0 4 -427z"/>
<path d="M10333 1708 c67 -168 437 -1121 437 -1128 0 -5 -34 -102 -75 -216
-41 -114 -75 -208 -75 -210 0 -2 65 -4 144 -4 128 0 145 2 151 18 152 392 585
1532 585 1541 0 8 -40 11 -151 9 l-151 -3 -136 -373 c-75 -205 -139 -369 -142
-365 -4 5 -67 173 -140 376 l-134 367 -159 0 c-123 0 -158 -3 -154 -12z"/>
<path d="M0 1350 l0 -270 1040 0 1040 0 0 270 0 270 -1040 0 -1040 0 0 -270z"/>
<path d="M0 270 l0 -270 275 0 275 0 0 270 0 270 -275 0 -275 0 0 -270z"/>
<path d="M1530 270 l0 -270 275 0 275 0 0 270 0 270 -275 0 -275 0 0 -270z"/>
</g>
</svg>
